<svg id="Layer_1" data-name="Layer 1" xmlns="http://www.w3.org/2000/svg" viewBox="0 0 109.33 118.67"><defs><style>.cls-1{fill:#828282;}</style></defs><title>rg</title><path class="cls-1" d="M13.57,73.66c0-9.16,0-18.32,0-27.47,0-4.41-1.54-7.32-6.39-7.9-1.37-.16-3.72-.08-3.55-2.59.21-3,2.66-1.91,4.24-1.93,10.66-.1,21.32-.26,32-.05,14,.27,23.55,9.83,22.35,22.5C61.36,65,56.38,71.42,48.41,75c-3.65,1.63-3.35,3-1.62,5.81a169.7,169.7,0,0,0,15.21,21c3.29,3.84,7,7.1,12.08,8.42,1.12.29,2.28.61,2.2,2.2-.09,1.76-1.24,2.1-2.69,2.26-8.33.95-15.53-1.16-21-7.81A131.9,131.9,0,0,1,36.32,82.4c-2.5-5-6.55-4.29-10.5-4.5-2.31-.12-1.68,2.08-1.69,3.42-.05,6.49-.08,13,0,19.48.13,6.85,1.05,7.8,8,8.84,1.61.24,3.7-.12,3.63,2.32-.07,2.76-2.38,1.72-3.81,1.74-8.32.08-16.65.06-25,0-1.38,0-3.25.61-3.41-1.74-.15-2.18,1.49-2.22,3-2.36,5.18-.48,7-3.58,6.94-8.49-.12-9.16,0-18.32,0-27.47Zm19-34.07a20.4,20.4,0,0,1-3,0c-4.25-.64-6,.8-5.59,5.39.44,5.29.1,10.64.1,16,0,11.76,0,11.76,11.95,10.83C43.16,71.2,48.58,67,50.39,60.61,54,47.84,47.07,39.63,32.57,39.59Z"/><path class="cls-1" d="M71.44,29.38c-.18-4-.19-8,1.08-11.86C75.95,7.09,91.22,3.7,98.72,11.77c1.29,1.39,4,3.18,1.82,5.32-2,1.93-4.13,2-6.54-.91-4.76-5.71-13.45-3.38-15.09,4A47.34,47.34,0,0,0,78.86,39c.91,4.92,5.19,7.4,10.12,6.61,4.33-.69,7.33-4.73,7.39-9.35,0-3.43-2.28-2.54-4.1-2.63-2.13-.1-4.5.48-4.5-3s2.36-2.94,4.5-3h2c9.85,0,10.39.65,8.59,10.38-1.86,10.08-7,14.12-17.43,13.61-8-.39-13.26-6.09-14-15.33C71.29,34,71.44,31.71,71.44,29.38Z"/></svg>